# xmcd
#
# Track frame offsets:
#	150
#	29057
#	68588
#	80162
#	97385
#	143234
#	160241
#	190971
#	224151
#	251581
#	293421
#
# Disc length: 4241 seconds
#
# Revision: 1
# Processed by: cddbd v1.5.2PL0 Copyright (c) Steve Scherf et al.
# Submitted via: audiograbber 1.83.01
#
DISCID=ae108f0b
DTITLE=Grateful Dead - 78-02-04A Milwaukee Auditorium, Milwaukee WI
DYEAR=1900
DGENRE=
TTITLE0=Jack Straw
TTITLE1=Tennessee Jed
TTITLE2=Mama Tried
TTITLE3=Me and My Uncle
TTITLE4=Row Jimmy
TTITLE5=Beat It On Down The Line
TTITLE6=Candyman
TTITLE7=It's All Over Now
TTITLE8=Deal
TTITLE9=Samson and Delilah
TTITLE10=Dupree's Diamond Blues
EXTD=
EXTT0=
EXTT1=
EXTT2=
EXTT3=
EXTT4=
EXTT5=
EXTT6=
EXTT7=
EXTT8=
EXTT9=
EXTT10=
PLAYORDER=
